<?xml version="1.0" encoding="utf-8"?>
<!-- Generator: Adobe Illustrator 21.0.0, SVG Export Plug-In . SVG Version: 6.00 Build 0)  -->
<svg version="1.1" id="Layer_1" xmlns="http://www.w3.org/2000/svg" xmlns:xlink="http://www.w3.org/1999/xlink" x="0px" y="0px"
	 viewBox="0 0 792 532.9" style="enable-background:new 0 0 792 532.9;" xml:space="preserve">
<style type="text/css">
	.st0{fill:none;stroke:#010101;stroke-width:10;stroke-miterlimit:10;}
	.st1{fill:#010101;}
	.st2{font-family:'Futura-Medium';}
	.st3{font-size:58.4032px;}
	.st4{letter-spacing:2;}
</style>
<rect x="14.7" y="72.8" class="st0" width="765.5" height="300.4"/>
<g>
	<path class="st1" d="M124.1,298.5V147.9h74.6v12.9h-60.9v47.1h58.6v12.9h-58.6v77.8H124.1z"/>
	<path class="st1" d="M238,298.5V147.9h74.6v12.9h-60.9v47.1h58.6v12.9h-58.6v77.8H238z"/>
	<path class="st1" d="M352,298.5V147.9h13.7v150.6H352z"/>
	<path class="st1" d="M480.4,304.4l-52.9-120.9l-11.4,115H402l20.5-157l57.7,134l59.9-134l19.3,157h-14.1l-11.2-115L480.4,304.4z"/>
	<path class="st1" d="M596.2,298.5V147.9h74.6v12.9h-60.9v47.1h60.9v12.9h-60.9v64.9h60.9v12.9H596.2z"/>
</g>
<text transform="matrix(1 0 0 1 118.9087 459.5552)" class="st1 st2 st3 st4">#FashionFlowsInMe</text>
</svg>
